<svg width="1440" height="80" viewBox="0 0 1440 80" fill="none" xmlns="http://www.w3.org/2000/svg">
<g filter="url(#filter0_d)">
<path fill-rule="evenodd" clip-rule="evenodd" d="M0 44.6667L120 35.5C240 26.3333 480 8 720 8C960 8 1200 26.3333 1320 35.5L1440 44.6667V118H1320C1200 118 960 118 720 118C480 118 240 118 120 118H0V44.6667Z" fill="#FEFDE2"/>
<path fill-rule="evenodd" clip-rule="evenodd" d="M0 44.6667L120 35.5C240 26.3333 480 8 720 8C960 8 1200 26.3333 1320 35.5L1440 44.6667V118H1320C1200 118 960 118 720 118C480 118 240 118 120 118H0V44.6667Z" stroke="black"/>
</g>
<defs>
<filter id="filter0_d" x="-4" y="0" width="1448" height="118" filterUnits="userSpaceOnUse" color-interpolation-filters="sRGB">
<feFlood flood-opacity="0" result="BackgroundImageFix"/>
<feColorMatrix in="SourceAlpha" type="matrix" values="0 0 0 0 0 0 0 0 0 0 0 0 0 0 0 0 0 0 127 0"/>
<feOffset dy="-4"/>
<feGaussianBlur stdDeviation="2"/>
<feColorMatrix type="matrix" values="0 0 0 0 0 0 0 0 0 0 0 0 0 0 0 0 0 0 0.25 0"/>
<feBlend mode="normal" in2="BackgroundImageFix" result="effect1_dropShadow"/>
<feBlend mode="normal" in="SourceGraphic" in2="effect1_dropShadow" result="shape"/>
</filter>
</defs>
</svg>
