<?xml version="1.0" encoding="UTF-8" standalone="no"?>
<svg
   xmlns:dc="http://purl.org/dc/elements/1.1/"
   xmlns:cc="http://creativecommons.org/ns#"
   xmlns:rdf="http://www.w3.org/1999/02/22-rdf-syntax-ns#"
   xmlns:svg="http://www.w3.org/2000/svg"
   xmlns="http://www.w3.org/2000/svg"
   xmlns:sodipodi="http://sodipodi.sourceforge.net/DTD/sodipodi-0.dtd"
   xmlns:inkscape="http://www.inkscape.org/namespaces/inkscape"
   sodipodi:docname="background.svg"
   inkscape:version="1.0 (4035a4fb49, 2020-05-01)"
   width="1760.5485"
   height="2136.6704"
   viewBox="0 0 1760.5484 2136.6704"
   version="1.1"
   id="SVGRoot">
  <defs
     id="defs899">
    <linearGradient
       gradientUnits="userSpaceOnUse"
       x1="-819.20001"
       x2="819.20001"
       spreadMethod="pad"
       gradientTransform="matrix(0,0.41114263,-0.41848821,0,878.80786,1341.83)"
       id="gradient5">
      <stop
         offset="0"
         stop-color="#FFFFFF"
         id="stop27" />
      <stop
         offset="1"
         stop-color="#CFEFFC"
         id="stop29" />
    </linearGradient>
  </defs>
  <sodipodi:namedview
     inkscape:window-maximized="1"
     inkscape:window-y="-11"
     inkscape:window-x="-11"
     inkscape:window-height="1526"
     inkscape:window-width="2880"
     showgrid="false"
     inkscape:document-rotation="0"
     inkscape:current-layer="layer1"
     inkscape:document-units="px"
     inkscape:cy="1583.4546"
     inkscape:cx="1657.977"
     inkscape:zoom="0.35"
     inkscape:pageshadow="2"
     inkscape:pageopacity="0.0"
     borderopacity="1.0"
     bordercolor="#666666"
     pagecolor="#ffffff"
     id="base" />
  <metadata
     id="metadata902">
    <rdf:RDF>
      <cc:Work
         rdf:about="">
        <dc:format>image/svg+xml</dc:format>
        <dc:type
           rdf:resource="http://purl.org/dc/dcmitype/StillImage" />
        <dc:title />
      </cc:Work>
    </rdf:RDF>
  </metadata>
  <g
     transform="translate(1.4663592,438.08873)"
     id="layer1"
     inkscape:groupmode="layer"
     inkscape:label="Layer 1"
     style="display:inline">
    <path
       style="fill:#cfeffc;fill-opacity:1;stroke-width:3.27053"
       stroke="none"
       fill="#cfeffc"
       d="M -1.4663592,-438.08873 H 1759.0821 V 1154.5965 H -1.4663592 V -438.08873"
       id="path314" />
    <path
       style="stroke-width:3.43857"
       stroke="none"
       fill="#def5ff"
       d="m -1.4663592,1079.8107 q 11.8630702,-6.0175 26.3050692,-6.0175 14.27007,0 26.133141,5.8456 28.024355,-12.5508 61.550419,-12.5508 h 2.75086 q 3.09472,-14.7858 15.30164,-26.1331 16.33322,-15.3017 39.7155,-15.3017 16.67707,0 29.91557,7.7368 l 14.09814,-15.1297 q 18.22443,-17.0209 39.88743,-26.64892 1.2035,-6.53329 4.12628,-12.55079 -4.12628,-8.25257 -4.814,-17.53671 l -0.17192,-4.47014 v -2.23508 q 0.85964,-20.28757 16.33321,-34.72956 16.50514,-15.30165 39.7155,-15.30165 l 12.20692,1.2035 q 10.48765,-21.663 29.91557,-39.71549 42.12249,-39.19972 101.7817,-39.19972 34.55764,0 63.26971,13.2385 12.89464,-7.73678 29.57171,-7.73678 23.21036,0 39.7155,15.30164 14.78586,13.75429 16.33322,32.66643 l 14.78585,-1.71929 q 23.38229,0 39.88743,15.30164 8.08064,7.39293 12.035,16.67707 59.48728,0 101.43785,39.19971 13.41042,12.55079 22.52264,26.82086 l 1.03157,-1.2035 q 16.50514,-15.30164 39.88742,-15.30164 23.38229,0 39.7155,15.30164 11.00343,10.31571 14.61393,23.55421 l 9.97186,-0.34385 30.25942,2.92282 q 3.26664,-14.7859 15.30164,-25.96125 16.50515,-15.30164 39.7155,-15.30164 19.59988,0 34.21378,10.65957 28.5401,-24.07 64.989,-31.11907 3.6105,-13.41043 14.9578,-23.89807 16.3332,-15.30164 39.7155,-15.30164 23.2103,0 39.7155,15.30164 10.3157,9.628 14.27,21.83493 l 9.8,-0.85965 q 23.2103,0 39.7155,15.30164 15.8174,14.78586 16.5051,35.24536 v 1.89121 1.2035 l -0.1719,3.6105 -0.1719,0.85965 h 0.1719 q 11.1753,-5.15786 24.4138,-5.15786 23.3823,0 39.7155,15.30168 l 1.7193,1.7192 22.3507,-1.5473 q 56.9084,0 97.6555,35.5892 l 4.642,-4.814 q 16.5052,-15.3016 39.7155,-15.3016 23.3823,0 39.7155,15.3016 9.2842,8.4245 13.2385,18.9121 16.3332,-6.5332 34.7296,-8.7683 3.0947,-21.3192 19.0841,-37.1366 11.5192,-11.5192 25.6173,-16.3332 10.4877,-3.78242 22.5227,-3.78242 28.0243,0 48.14,20.11562 4.814,4.814 8.4245,10.1438 23.2103,2.407 40.4032,19.5999 19.256,19.256 19.9437,46.2487 V 1512.727 H -1.4663592 v -432.9163"
       id="path316" />
    <path
       stroke="none"
       fill="url(#gradient5)"
       d="m 1759.0821,1251.7394 v 432.9161 H -1.4663592 v -427.4144 q 0.6877142,-26.9927 19.9437132,-46.2487 17.192856,-17.1929 40.40321,-19.5999 3.6105,-5.3298 8.4245,-10.1438 20.115641,-20.1156 48.139996,-20.1156 12.035,0 22.52264,3.7824 14.09814,4.814 25.61736,16.3332 15.98935,15.8174 19.08407,37.1366 18.39635,2.2351 34.72957,8.7683 3.95435,-10.4876 13.2385,-18.9121 16.33321,-15.3016 39.71549,-15.3016 23.21036,0 39.7155,15.3016 l 4.64207,4.814 q 40.74706,-35.5892 97.65542,-35.5892 l 22.35071,1.5473 1.71928,-1.7192 q 16.33322,-15.3017 39.7155,-15.3017 13.2385,0 24.41386,5.1579 h 0.17193 l -0.17193,-0.8597 -0.17193,-3.6105 v -1.2035 -1.8912 q 0.68771,-20.4595 16.50514,-35.2453 16.50514,-15.3017 39.7155,-15.3017 l 9.79992,0.8597 q 3.95436,-12.207 14.27008,-21.8351 16.50514,-15.3016 39.71549,-15.3016 23.38229,0 39.7155,15.3016 11.34728,10.4878 14.95778,23.8982 36.44886,7.0491 64.989,31.1191 14.61393,-10.6596 34.21378,-10.6596 23.21036,0 39.7155,15.3016 12.035,11.1754 15.30164,25.9613 l 30.25943,-2.9228 9.97185,0.3438 q 3.6105,-13.2385 14.61393,-23.5542 16.33322,-15.3016 39.7155,-15.3016 23.38228,0 39.88743,15.3016 l 1.03157,1.2035 q 9.11221,-14.2701 22.52264,-26.8208 41.95052,-39.1999 101.43782,-39.1999 3.9544,-9.2841 12.035,-16.6771 16.5052,-15.3016 39.8875,-15.3016 l 14.7858,1.7193 q 1.5474,-18.9122 16.3332,-32.6664 16.5052,-15.3017 39.7155,-15.3017 16.6771,0 29.5717,7.7368 28.7121,-13.2385 63.2697,-13.2385 59.6593,0 101.7817,39.1997 19.428,18.0525 29.9156,39.7155 l 12.2069,-1.2035 q 23.2104,0 39.7155,15.3018 15.4736,14.442 16.3333,34.7296 v 2.235 l -0.172,4.4702 q -0.6877,9.2841 -4.814,17.5367 2.9228,6.0175 4.1263,12.5508 21.663,9.628 39.8874,26.6489 7.7368,7.221 14.0982,15.1297 13.2385,-7.7368 29.9156,-7.7368 23.3822,0 39.7154,15.3017 12.207,11.3473 15.3017,26.1331 h 2.7508 q 33.5261,0 61.5505,12.5508 11.863,-5.8456 26.1331,-5.8456 14.442,0 26.3051,6.0175"
       id="path318"
       style="fill:url(#gradient5);stroke-width:3.43857" />
    <path
       style="stroke-width:3.43857"
       stroke="none"
       fill="#19a389"
       d="m 1758.9102,1444.4713 v 329.2432 H -1.4663592 v -329.2432 q 60.0030662,10.4877 117.9429892,23.5543 101.26592,22.6945 207.17392,3.4385 98.1712,-17.8805 198.40555,-32.4945 102.9852,-15.1297 208.54934,-4.9859 105.39221,10.3157 201.32834,32.6664 97.13962,22.6946 205.45462,23.0384 108.315,0.3439 209.5809,-17.7086 98.1712,-17.7086 200.1249,-29.5717 106.5957,-12.2069 211.816,2.0631"
       id="path320" />
    <path
       style="stroke-width:3.43857"
       stroke="none"
       fill="#def5ff"
       d="m 1121.0552,1276.4971 -7.7368,2.9228 17.8806,41.6067 6.0175,12.8947 -6.3614,-0.3439 -6.8771,-0.5158 0.8596,4.1263 0.8597,5.1579 0.3438,1.2035 6.1895,25.9612 q 6.8771,27.3366 15.4735,53.9856 l -7.5648,7.3929 11.0034,3.0947 q 8.7684,27.1647 19.7718,53.4698 l 3.7824,8.5964 -18.0525,-2.9228 q 3.9544,4.9859 4.1263,12.035 l 26.477,55.1891 -6.1894,2.7508 11.6911,24.242 1.2035,2.5789 3.2666,6.5333 q -52.2662,-2.9228 -106.2518,-1.2035 l 3.2666,28.5401 30.0875,-5.8455 9.9719,-9.9719 7.0491,3.9544 -9.2842,13.0665 4.2982,6.5333 -5.3297,3.0947 -5.6737,-3.9543 -29.5717,3.9543 2.407,16.849 q 5.5017,37.9962 15.4736,47.1084 l -71.6942,-3.2666 q 6.5332,-3.7824 11.3472,-19.4279 l 2.0632,-8.4245 3.0947,-18.9122 6.5333,-52.0943 -96.10808,8.5964 4.814,-11.5192 1.37543,-2.9228 q 8.59643,-21.663 15.47357,-45.0453 l 8.59643,-2.7508 -5.84557,-6.7052 6.87712,-28.7121 5.8456,-31.291 -28.88401,-1.5474 7.73679,-14.27 16.84902,-33.3542 -7.56488,-5.5017 34.38568,-63.2697 q 0.172,-16.849 8.0807,-19.7718 l -14.614,2.5789 2.9228,-7.221 10.8315,-29.0559 11.3473,-5.3298 -6.5333,-9.628 10.8315,-40.747 1.8912,-8.9403 13.2385,-68.5995 q 2.579,-13.4104 10.1438,1.5473 l 21.4911,47.7962 22.8665,55.7048"
       id="path322" />
    <path
       style="stroke-width:3.43857"
       stroke="none"
       fill="#1ebc9e"
       d="m 1618.9603,1340.9703 6.7052,12.7228 -13.4104,-0.172 9.9718,35.9331 q 7.9088,26.9928 17.8806,53.2979 l -7.0491,7.7367 10.8315,2.407 q 10.3158,26.8209 22.6946,52.6102 l 3.9544,8.5964 -18.0525,-2.2351 2.235,7.393 31.291,58.2837 -6.0175,3.0948 12.7228,23.5542 1.3754,2.5789 3.7824,6.1894 -106.4238,3.9544 9.9719,55.7048 q 7.221,37.9962 17.7086,46.4207 h -71.8661 q 6.3614,-3.9543 10.3157,-19.7717 l 1.8912,-8.5965 1.8912,-13.9262 -22.5226,-4.1263 -5.8456,3.7825 -5.3298,-3.6105 4.6421,-6.1895 -8.7683,-13.5823 7.3929,-3.6105 9.2841,10.6596 22.0069,5.1578 3.6105,-45.9049 q -47.2804,4.814 -95.7642,13.2385 l 4.4701,-11.8631 1.0316,-3.0947 q 7.5648,-21.8349 13.4104,-45.5611 l 8.4245,-3.0947 -6.1894,-6.7052 5.5017,-28.884 4.4701,-31.4629 -28.884,-0.3439 7.221,-14.442 14.9578,-34.2138 -7.7368,-5.1578 35.0735,-72.5539 3.6105,-12.3788 -14.614,3.2666 2.7509,-7.3929 9.2841,-29.5717 11.0035,-5.6737 -6.8772,-9.2841 q 8.9403,-64.6451 47.6242,-140.9814 l 32.1507,123.9605 -7.5649,3.0947 q 9.4561,20.8033 19.7718,40.747 m -260.1279,-143.3884 4.814,13.2385 -13.2385,-1.5473 6.0175,36.9646 29.0559,87.3397 -7.5648,2.7509 9.456,30.0875 3.0947,9.1122 -17.7086,-4.2982 1.3754,7.3929 24.7577,61.7224 -6.3613,2.407 9.7999,24.7577 1.2035,2.5789 2.9228,6.7052 -81.6661,-7.0491 -0.5157,4.6421 q -0.3439,2.7509 -2.407,4.2982 -2.0632,1.7193 -4.6421,1.5474 -2.7509,-0.3439 -4.4702,-2.5789 -1.5473,-2.0632 -1.2035,-4.814 l 0.5158,-3.7825 -11.6911,-0.3438 1.8912,34.3857 8.7684,-4.814 3.7824,4.9859 -11.1754,17.5367 0.3439,4.2982 q 2.7508,38.512 12.2069,48.312 l -71.3503,-8.0807 q 7.049,-3.2666 12.5507,-18.5683 l 2.7509,-8.2525 2.0631,-7.5649 -20.6314,-21.8349 5.3298,-4.2982 18.5683,10.3157 9.1122,-46.9365 q -47.6242,-0.5158 -96.6238,2.2351 l 5.6736,-11.1754 1.3754,-2.9228 6.8772,-14.6139 -6.1895,-7.0491 22.1788,-35.0734 7.7368,-24.5858 7.9087,-30.7752 -28.7121,-3.4386 8.7684,-13.5823 12.2069,-23.8981 -7.049,-6.5333 41.7786,-61.2066 7.7368,-14.9577 4.9859,-11.8631 -14.9578,1.5473 3.6105,-6.8771 7.9087,-17.0209 -8.5964,-6.5333 q 45.0453,-98.3433 85.6204,-159.3779 0.3439,64.1293 14.614,132.2132 l -7.9087,2.235 q 7.221,21.663 15.3016,42.6383 m -355.0325,76.6802 -7.73677,2.9228 17.88057,41.6067 6.0175,12.8946 -6.3614,-0.3439 -6.8771,-0.5157 0.8596,4.1262 0.8597,5.1579 0.3438,1.2035 6.1895,25.9612 q 6.8771,27.3367 15.4735,53.9856 l -7.5648,7.3929 11.0034,3.0947 q 8.7684,27.1647 19.7718,53.4698 l 3.7824,8.5964 -18.0525,-2.9228 q 3.9544,4.986 4.1263,12.035 l 26.477,55.1891 -6.1894,2.7509 11.6911,24.2419 1.2035,2.5789 3.2667,6.5333 q -52.2663,-2.9228 -106.25188,-1.2035 l 3.26664,28.5402 30.08754,-5.8456 9.9718,-9.9719 7.0491,3.9544 -9.2842,13.0666 4.2983,6.5332 -5.3298,3.0948 -5.6737,-3.9544 -29.57168,3.9544 2.407,16.849 q 5.50172,37.9962 15.47357,47.1084 l -71.69421,-3.2667 q 6.53329,-3.7824 11.34729,-19.4279 l 2.06314,-8.4245 3.09471,-18.9121 6.53329,-52.0944 -96.10807,8.5964 4.814,-11.5192 1.37543,-2.9228 q 8.59643,-21.663 15.47357,-45.0452 l 8.59643,-2.7509 -5.84557,-6.7052 6.87714,-28.7121 5.84557,-31.291 -28.88399,-1.5473 7.73678,-14.2701 16.849,-33.3541 -7.56486,-5.5018 34.38571,-63.2697 q 0.17193,-16.849 8.08065,-19.7718 l -14.61393,2.579 2.92279,-7.221 10.83149,-29.056 11.34729,-5.3297 -6.53329,-9.628 10.8315,-40.7471 1.89122,-8.9403 13.2385,-68.5995 q 2.57892,-13.4104 10.14378,1.5474 l 21.49107,47.7961 22.86648,55.7049 m -235.88596,-15.4736 7.04907,12.3789 -13.41043,0.5157 11.69114,35.4173 42.81021,81.6661 -7.04907,3.9543 14.27007,28.0244 4.29822,8.4245 -18.0525,-1.3754 2.57893,7.3929 34.21378,56.7364 -5.84557,3.4386 13.58235,22.8665 1.54736,2.407 4.12629,6.1894 q -52.61014,1.8912 -105.908,8.7684 l 12.20693,55.361 q 9.11222,37.6523 19.94372,45.561 l -71.69421,3.4386 q 10.48764,-7.221 12.20692,-48.3119 l 1.54736,-52.2663 q -46.9365,7.0491 -95.07649,17.7086 l 3.95435,-11.863 0.85965,-3.0947 q 6.70521,-22.5227 11.17535,-46.4208 l 8.4245,-3.2666 -6.70521,-6.5333 4.29821,-29.0559 3.09472,-31.8068 -29.05593,1.2035 6.53329,-14.7858 13.06657,-40.7471 13.92621,-6.5333 -8.25257,-9.9719 18.0525,-56.5645 3.09471,-12.5507 -14.442,3.9543 2.407,-7.5648 7.90872,-30.0875 10.65957,-6.1895 -7.39293,-8.9402 q 12.035,-60.175 15.30164,-141.6692 l 63.7855,120.8658 -7.56486,3.6105 q 10.48764,20.4595 21.83493,39.7155 m -308.7837,85.7923 4.64207,8.7684 h -9.28414 l 6.87714,24.7577 26.82086,57.768 -4.98593,2.407 8.76836,19.9437 2.75086,6.0175 -12.37886,-1.5473 1.54736,5.1578 21.66299,40.2313 -4.12628,2.0631 8.59643,16.3333 1.03157,1.7192 2.57893,4.2983 q -27.85243,-0.172 -56.5645,1.5473 v 3.2667 q 0,1.8912 -1.2035,3.2666 -1.37543,1.2035 -3.26664,1.2035 -1.71929,0 -3.09472,-1.2035 -1.37542,-1.3754 -1.37542,-3.2666 v -2.579 l -7.90872,0.5158 3.95436,23.3823 5.50171,-3.9544 3.09472,3.2667 -6.18943,12.8946 0.51578,2.9228 q 4.98593,26.3051 12.20693,32.1507 h -49.51542 q 4.29821,-2.7509 7.04907,-13.7543 l 1.2035,-5.8456 0.68771,-5.3298 -15.81743,-13.4104 3.26665,-3.2667 13.75428,5.5018 2.407,-32.8384 q -32.66642,3.2666 -66.02056,9.1122 l 3.09471,-8.2526 0.68771,-2.0631 3.43857,-10.4876 -4.81399,-4.2983 12.55078,-25.9612 3.43857,-17.5367 3.09472,-21.663 -19.94372,-0.3438 4.98593,-9.9719 6.53329,-17.1928 -5.50172,-3.9544 23.89807,-45.2172 4.29822,-10.8315 2.407,-8.5964 -10.14379,2.235 1.89121,-5.1578 4.12629,-12.3789 -6.36136,-3.6105 q 23.21036,-71.1784 46.42071,-116.2237 5.15786,44.1857 20.28757,89.7467 l -5.15785,2.0632 q 6.53328,14.442 13.58235,28.1962 m -238.29297,-91.8098 3.78243,8.9403 -9.28415,-0.8597 4.64207,25.4455 q 3.6105,19.084 8.94029,37.8242 l -5.32979,4.814 7.39293,2.407 q 5.32979,19.0841 12.20693,37.4805 l 2.23507,6.3613 -12.37885,-2.7508 1.20349,5.1578 17.70865,41.9506 -4.29822,1.8912 7.39293,17.0209 0.68771,1.7193 2.23508,4.6421 -73.4135,-3.9544 3.43857,38.8559 q 2.407,26.6489 9.11222,33.1822 l -49.3435,-4.4701 q 4.47014,-2.407 8.25257,-13.0666 l 1.89121,-5.8456 2.06315,-9.456 -15.12972,-4.2983 -4.29821,2.2351 -3.6105,-2.7508 3.78243,-3.9544 -5.15786,-9.7999 5.15786,-2.0632 5.84557,7.9087 14.78586,4.814 5.32978,-31.291 -66.70828,3.0948 3.95436,-7.9088 0.85964,-2.0631 q 6.53329,-14.6139 11.86307,-30.6033 l 6.18943,-1.5473 -3.95436,-4.986 5.67364,-19.4279 4.98593,-21.3191 -19.77178,-2.2351 6.0175,-9.4561 12.37885,-22.5226 -4.98592,-4.1263 28.71207,-47.7961 3.09471,-8.0807 -10.14379,1.2035 2.407,-4.9859 8.08065,-19.5999 7.90871,-3.2666 -3.95436,-6.8772 q 10.14379,-44.0137 41.60671,-93.873 l 14.27007,87.1678 -5.32978,1.7193 q 4.98593,14.9578 11.00343,29.3998"
       id="path324" />
    <path
       style="stroke-width:3.43857"
       stroke="none"
       fill="#19a389"
       d="m 1738.7945,1177.9821 20.2876,43.6698 v 333.5414 h -21.3192 q 7.393,-4.642 9.8,-33.0103 l 2.9228,-35.933 q -32.6665,3.2666 -66.1925,9.1122 l 3.0947,-8.2526 0.6877,-2.0631 q 5.3298,-15.1297 9.2841,-31.4629 l 6.0175,-2.2351 -4.4701,-4.6421 3.9543,-19.9437 2.9228,-21.663 -19.9437,-0.1719 4.9859,-10.1438 10.4877,-27.6805 9.7999,-3.7824 -5.5017,-7.393 14.442,-38.34 2.5789,-8.5965 -10.1438,2.2351 1.8913,-5.1579 6.3613,-20.4594 7.5649,-3.7825 -4.6421,-6.5333 q 10.3157,-41.0909 15.1297,-97.3115 m -1712.064576,115.8798 4.470143,8.7684 h -9.112214 l 6.877143,24.7577 26.648926,57.9399 -4.985928,2.2351 8.940285,19.9437 2.750857,6.0175 -12.550785,-1.5474 1.547357,5.1579 21.834927,40.2313 -4.126286,2.0631 8.596428,16.3332 0.859643,1.7193 2.750857,4.2982 -73.413494,2.7509 6.705214,38.512 q 4.985928,26.3051 12.206927,32.1506 H -1.4663592 v -333.5414 l 19.5998562,41.9506 -5.157857,2.0631 13.754284,28.1963"
       id="path326" />
    <path
       style="stroke-width:3.43857"
       stroke="none"
       fill="#14caa7"
       d="m 1149.5953,1154.084 -9.2841,3.4386 q 10.3157,25.7893 21.663,50.375 l 7.221,15.4736 -7.7368,-0.3438 -8.2526,-0.6878 1.0316,4.986 1.0316,6.1894 0.3438,1.5474 7.5649,31.291 q 8.2526,33.1822 18.7402,65.3328 l -9.2841,8.9403 13.4104,3.7824 q 10.4876,32.8384 23.8981,64.6452 l 4.4701,10.3157 -21.8349,-3.4386 q 4.814,6.0175 4.9859,14.442 l 32.1506,66.7083 -7.5648,3.4385 14.0981,29.2279 1.5474,3.0947 3.9543,7.9087 q -63.2697,-3.6105 -128.4306,-1.3754 l 3.9544,34.3857 36.2769,-7.0491 12.035,-12.035 8.5964,4.814 -11.1753,15.8175 5.1578,7.9087 -6.5333,3.6105 -6.8771,-4.6421 -35.5892,4.6421 2.9228,20.4595 q 6.5333,45.9049 18.5683,56.9083 l -86.652,-3.9543 q 7.9087,-4.6421 13.7542,-23.5542 l 2.579,-10.1438 3.6105,-22.8665 7.9087,-62.9259 -116.05179,10.3157 5.67364,-13.9262 1.71929,-3.4385 q 10.31571,-26.1332 18.74021,-54.5014 l 10.31575,-3.2666 -7.04911,-8.0807 8.42451,-34.7295 7.0491,-37.8243 -34.90154,-1.8912 9.28415,-17.1929 20.28759,-40.4032 -9.11224,-6.7052 41.60674,-76.3363 q 0.1719,-20.4595 9.7999,-23.8981 l -17.7086,3.0947 3.6105,-8.7683 13.0665,-35.0734 13.7543,-6.5333 -7.9087,-11.5192 13.0666,-49.3435 2.235,-10.8315 15.9894,-82.8697 q 3.0947,-16.1613 12.2069,1.8912 8.9403,18.0525 26.1332,57.768 l 27.5085,67.3961"
       id="path328" />
    <path
       style="stroke-width:3.43857"
       stroke="none"
       fill="#19a389"
       d="m 255.91069,1357.1316 15.47357,-37.6523 14.61393,-32.3226 q 5.15786,-10.1438 6.87714,-1.0316 l 8.94029,46.4207 1.2035,6.0175 q 3.43857,14.614 7.39293,27.6805 l -4.47015,6.3614 7.73679,3.7824 7.221,19.5999 2.06314,4.814 -9.97185,-1.7193 q 5.50171,1.8912 5.50171,13.4104 l 23.38228,42.8102 -5.15785,3.6105 11.34727,22.6946 5.15786,9.628 -19.42792,1.0316 q 1.71929,10.8315 3.95436,21.1472 l 4.64207,19.4279 -3.95436,4.6421 5.84557,1.7193 q 4.47014,15.9893 10.48764,30.6033 l 0.85964,1.8912 3.26664,7.7368 -64.98898,-5.6737 4.47014,35.2454 1.89121,12.7227 1.54736,5.6736 q 3.26664,10.6596 7.73678,13.2385 l -48.65578,2.2351 q 6.87714,-6.1894 10.48764,-31.9787 l 1.54736,-11.3473 -19.94371,-2.7509 -3.78243,2.7509 -3.6105,-2.0631 2.92279,-4.4702 -6.36136,-8.7683 4.814,-2.7509 6.70521,6.7052 20.28757,3.9544 2.23507,-19.256 q -36.44885,-1.2035 -71.86613,0.8596 l 2.23507,-4.4701 0.85964,-1.7193 7.90871,-16.5052 -4.29821,-1.7192 17.88057,-37.4805 q 0.34386,-4.642 2.92279,-8.0806 l -12.20693,2.0631 2.57893,-5.8455 q 7.39292,-17.8806 13.41042,-36.277 l 7.39293,-2.0631 -5.15786,-4.9859 q 5.84558,-18.0525 10.48765,-36.6208 l 4.29821,-17.5367 0.17193,-0.8597 0.51579,-3.4385 0.51578,-2.7509 -4.47014,0.3439 -4.47014,0.1719 4.12628,-8.5964 12.035,-28.1963 -5.15786,-2.0632"
       id="path330" />
    <path
       style="stroke-width:3.43857"
       stroke="none"
       fill="#14caa7"
       d="m -1.2944307,1513.9305 v -21.3192 q 105.2202807,-14.27 211.8159807,-2.0631 101.95364,11.8631 200.12484,29.5717 101.26592,18.0525 209.58091,17.7086 108.315,-0.3438 205.45463,-23.0384 95.93614,-22.3507 201.32837,-32.6664 105.5641,-10.1438 208.5493,4.9859 100.2344,14.6139 198.4056,32.4945 105.908,19.256 207.1739,-3.4386 57.9399,-13.0665 117.943,-23.5542 v 21.3192 q -60.0031,8.9403 -117.943,20.1156 -101.2659,19.4279 -207.1739,3.0947 -98.1712,-15.3016 -198.4056,-27.8524 -102.9852,-12.8946 -208.5493,-4.1263 -105.39223,8.5964 -201.32837,27.8524 -97.13963,19.256 -205.45463,19.5999 -108.31499,0.3439 -209.58091,-15.1297 -98.1712,-15.1297 -200.12484,-25.1016 -106.5957,-10.4876 -211.8159807,1.5474"
       id="path332" />
    <path
       style="stroke-width:3.43857"
       stroke="none"
       fill="#1ebc9e"
       d="m -1.2944307,1513.9305 q 105.2202807,-12.035 211.8159807,-1.5474 101.95364,9.9719 200.12484,25.1016 101.26592,15.4736 209.58091,15.1297 108.315,-0.3439 205.45463,-19.5999 95.93614,-19.256 201.32837,-27.8524 105.5641,-8.7683 208.5493,4.1263 100.2344,12.5508 198.4056,27.8524 105.908,16.3332 207.1739,-3.0947 57.9399,-11.1753 117.943,-20.1156 v 651.7811 H -1.2944307 v -651.7811"
       id="path334" />
    <path
       style="stroke-width:3.43857"
       stroke="none"
       fill="#c26246"
       d="m -1.6382878,1836.4685 v -44.0138 q 105.2202778,-18.2244 211.8159878,-2.5789 101.95363,15.1297 200.12483,37.8243 101.26592,23.0384 209.58092,22.6946 108.31499,-0.5158 205.45463,-29.5717 95.93613,-28.5402 201.32832,-41.7787 105.5642,-12.8946 208.5494,6.3614 100.2343,18.7402 198.4055,41.6067 105.908,24.5858 207.1739,-4.2982 57.94,-16.849 117.943,-30.2595 v 44.0138 q -60.003,10.4876 -117.943,23.5542 -101.2659,22.6945 -207.1739,3.4385 -98.1712,-17.8805 -198.4055,-32.4945 -102.9852,-15.1297 -208.5494,-4.9859 -105.39219,10.3157 -201.32832,32.6664 -97.13964,22.6946 -205.45463,23.0385 -108.315,0.3438 -209.58092,-17.7087 -98.1712,-17.7086 -200.12483,-29.5717 -106.59571,-12.2069 -211.8159878,2.0632"
       id="path336" />
    <path
       style="stroke-width:3.43857"
       stroke="none"
       fill="#d26b4c"
       d="m -1.6382878,1836.4685 q 105.2202778,-14.2701 211.8159878,-2.0632 101.95363,11.8631 200.12483,29.5717 101.26592,18.0525 209.58092,17.7087 108.31499,-0.3439 205.45463,-23.0385 95.93613,-22.3507 201.32832,-32.6664 105.5642,-10.1438 208.5494,4.9859 100.2343,14.614 198.4055,32.4945 105.908,19.256 207.1739,-3.4385 57.94,-13.0666 117.943,-23.5542 v 329.2431 H -1.6382878 v -329.2431"
       id="path338" />
  </g>
</svg>
