<?xml version="1.0" encoding="UTF-8" standalone="no"?>
<svg
   xmlns:dc="http://purl.org/dc/elements/1.1/"
   xmlns:cc="http://creativecommons.org/ns#"
   xmlns:rdf="http://www.w3.org/1999/02/22-rdf-syntax-ns#"
   xmlns:svg="http://www.w3.org/2000/svg"
   xmlns="http://www.w3.org/2000/svg"
   xmlns:xlink="http://www.w3.org/1999/xlink"
   xmlns:sodipodi="http://sodipodi.sourceforge.net/DTD/sodipodi-0.dtd"
   xmlns:inkscape="http://www.inkscape.org/namespaces/inkscape"
   inkscape:version="1.0 (4035a4fb49, 2020-05-01)"
   sodipodi:docname="banner_full.svg"
   width="616.72961"
   height="235.97362"
   viewBox="0 0 616.72961 235.97362"
   version="1.1"
   id="SVGRoot">
  <defs
     id="defs594">
    <inkscape:path-effect
       only_selected="false"
       apply_with_weight="true"
       apply_no_weight="true"
       helper_size="0"
       steps="2"
       weight="33.333333"
       lpeversion="1"
       is_visible="true"
       id="path-effect1644"
       effect="bspline" />
    <rect
       id="rect1628"
       height="29.475727"
       width="481.35843"
       y="470"
       x="780" />
    <rect
       id="rect1618"
       height="45"
       width="445"
       y="470"
       x="775" />
    <rect
       id="rect1612"
       height="75"
       width="445"
       y="465"
       x="775" />
    <rect
       id="rect1602"
       height="45"
       width="430"
       y="470"
       x="780" />
    <rect
       id="rect1596"
       height="60"
       width="440"
       y="465"
       x="775" />
    <rect
       id="rect751"
       height="90"
       width="560"
       y="345"
       x="715" />
  </defs>
  <sodipodi:namedview
     inkscape:snap-nodes="false"
     inkscape:snap-bbox-midpoints="true"
     inkscape:snap-bbox="true"
     inkscape:snap-global="false"
     inkscape:window-maximized="1"
     inkscape:window-y="-11"
     inkscape:window-x="-11"
     inkscape:window-height="1526"
     inkscape:window-width="2880"
     showgrid="false"
     inkscape:document-rotation="0"
     inkscape:current-layer="layer3"
     inkscape:document-units="px"
     inkscape:cy="153.22388"
     inkscape:cx="280.42854"
     inkscape:zoom="2.56"
     inkscape:pageshadow="2"
     inkscape:pageopacity="0.0"
     borderopacity="1.0"
     bordercolor="#666666"
     pagecolor="#ffffff"
     id="base">
    <inkscape:grid
       originy="-311.33882"
       originx="-681.63519"
       id="grid689"
       type="xygrid" />
  </sodipodi:namedview>
  <metadata
     id="metadata597">
    <rdf:RDF>
      <cc:Work
         rdf:about="">
        <dc:format>image/svg+xml</dc:format>
        <dc:type
           rdf:resource="http://purl.org/dc/dcmitype/StillImage" />
      </cc:Work>
    </rdf:RDF>
  </metadata>
  <g
     transform="translate(-681.63519,-311.33882)"
     sodipodi:insensitive="true"
     id="layer1"
     inkscape:groupmode="layer"
     inkscape:label="Layer 1">
    <path
       stroke="none"
       fill="#b47b41"
       d="m 681.63519,315.41475 c 0,-2.71729 1.35982,-4.07593 4.07944,-4.07593 h 608.57067 c 2.7197,0 4.0795,1.35864 4.0795,4.07593 v 134.88479 c 0,2.71729 -1.3598,4.07593 -4.0795,4.07593 H 685.71463 c -2.71962,0 -4.07944,-1.35864 -4.07944,-4.07593 V 315.41475 m 5.43926,133.52615 H 1292.9256 V 316.77339 H 687.07445 V 448.9409"
       id="path1040"
       style="stroke-width:1.35923"
       sodipodi:nodetypes="cssssssscccccc" />
    <path
       stroke="none"
       fill="#a3703a"
       d="M 687.07445,448.9409 V 316.77339 H 1292.9256 V 448.9409 H 687.07445 m 2.71964,-129.45021 V 446.2236 H 1290.2059 V 319.49069 H 689.79409"
       id="path1042"
       style="stroke-width:1.35923"
       sodipodi:nodetypes="cccccccccc" />
    <path
       stroke="none"
       fill="#fff1d2"
       d="M 689.79409,319.49069 H 1290.2059 V 446.2236 H 689.79409 V 319.49069"
       id="path1044"
       style="stroke-width:1.35923"
       sodipodi:nodetypes="ccccc" />
    <path
       sodipodi:nodetypes="cssssssscccccc"
       style="stroke-width:1.35923"
       id="path530"
       d="m 681.63519,315.41475 c 0,-2.71729 1.35982,-4.07593 4.07944,-4.07593 h 608.57067 c 2.7197,0 4.0795,1.35864 4.0795,4.07593 v 134.88479 c 0,2.71729 -1.3598,4.07593 -4.0795,4.07593 H 685.71463 c -2.71962,0 -4.07944,-1.35864 -4.07944,-4.07593 V 315.41475 m 5.43926,133.52615 H 1292.9256 V 316.77339 H 687.07445 V 448.9409"
       fill="#b47b41"
       stroke="none" />
    <path
       sodipodi:nodetypes="cccccccccc"
       style="stroke-width:1.35923"
       id="path532"
       d="M 687.07445,448.9409 V 316.77339 H 1292.9256 V 448.9409 H 687.07445 m 2.71964,-129.45021 V 446.2236 H 1290.2059 V 319.49069 H 689.79409"
       fill="#a3703a"
       stroke="none" />
    <path
       sodipodi:nodetypes="ccccc"
       style="stroke-width:1.35923"
       id="path534"
       d="M 689.79409,319.49069 H 1290.2059 V 446.2236 H 689.79409 V 319.49069"
       fill="#fff1d2"
       stroke="none" />
    <path
       sodipodi:nodetypes="cssssssscccccc"
       style="stroke-width:1.35923"
       id="path536"
       d="m 681.63519,315.41475 c 0,-2.71729 1.35982,-4.07593 4.07944,-4.07593 h 608.57067 c 2.7197,0 4.0795,1.35864 4.0795,4.07593 v 134.88479 c 0,2.71729 -1.3598,4.07593 -4.0795,4.07593 H 685.71463 c -2.71962,0 -4.07944,-1.35864 -4.07944,-4.07593 V 315.41475 m 5.43926,133.52615 H 1292.9256 V 316.77339 H 687.07445 V 448.9409"
       fill="#b47b41"
       stroke="none" />
    <path
       sodipodi:nodetypes="cccccccccc"
       style="stroke-width:1.35923"
       id="path538"
       d="M 687.07445,448.9409 V 316.77339 H 1292.9256 V 448.9409 H 687.07445 m 2.71964,-129.45021 V 446.2236 H 1290.2059 V 319.49069 H 689.79409"
       fill="#a3703a"
       stroke="none" />
    <path
       sodipodi:nodetypes="ccccc"
       style="stroke-width:1.35923"
       id="path540"
       d="M 689.79409,319.49069 H 1290.2059 V 446.2236 H 689.79409 V 319.49069"
       fill="#fff1d2"
       stroke="none" />
    <path
       stroke="none"
       fill="#b47b41"
       d="m 681.63519,315.41475 c 0,-2.71729 1.35982,-4.07593 4.07944,-4.07593 h 608.57067 c 2.7197,0 4.0795,1.35864 4.0795,4.07593 v 134.88479 c 0,2.71729 -1.3598,4.07593 -4.0795,4.07593 H 685.71463 c -2.71962,0 -4.07944,-1.35864 -4.07944,-4.07593 V 315.41475 m 5.43926,133.52615 H 1292.9256 V 316.77339 H 687.07445 V 448.9409"
       id="path542"
       style="stroke-width:1.35923"
       sodipodi:nodetypes="cssssssscccccc" />
    <path
       stroke="none"
       fill="#a3703a"
       d="M 687.07445,448.9409 V 316.77339 H 1292.9256 V 448.9409 H 687.07445 m 2.71964,-129.45021 V 446.2236 H 1290.2059 V 319.49069 H 689.79409"
       id="path544"
       style="stroke-width:1.35923"
       sodipodi:nodetypes="cccccccccc" />
    <path
       stroke="none"
       fill="#fff1d2"
       d="M 689.79409,319.49069 H 1290.2059 V 446.2236 H 689.79409 V 319.49069"
       id="path546"
       style="stroke-width:1.35923"
       sodipodi:nodetypes="ccccc" />
    <path
       stroke="none"
       fill="#b47b41"
       d="m 681.63519,315.41475 c 0,-2.71729 1.35982,-4.07593 4.07944,-4.07593 h 608.57067 c 2.7197,0 4.0795,1.35864 4.0795,4.07593 v 134.88479 c 0,2.71729 -1.3598,4.07593 -4.0795,4.07593 H 685.71463 c -2.71962,0 -4.07944,-1.35864 -4.07944,-4.07593 V 315.41475 m 5.43926,133.52615 H 1292.9256 V 316.77339 H 687.07445 V 448.9409"
       id="path548"
       style="stroke-width:1.35923"
       sodipodi:nodetypes="cssssssscccccc" />
    <path
       stroke="none"
       fill="#a3703a"
       d="M 687.07445,448.9409 V 316.77339 H 1292.9256 V 448.9409 H 687.07445 m 2.71964,-129.45021 V 446.2236 H 1290.2059 V 319.49069 H 689.79409"
       id="path550"
       style="stroke-width:1.35923"
       sodipodi:nodetypes="cccccccccc" />
    <path
       stroke="none"
       fill="#fff1d2"
       d="M 689.79409,319.49069 H 1290.2059 V 446.2236 H 689.79409 V 319.49069"
       id="path552"
       style="stroke-width:1.35923"
       sodipodi:nodetypes="ccccc" />
    <path
       sodipodi:nodetypes="cssssssscccccc"
       style="stroke-width:1.35923"
       id="path554"
       d="m 681.63519,315.41475 c 0,-2.71729 1.35982,-4.07593 4.07944,-4.07593 h 608.57067 c 2.7197,0 4.0795,1.35864 4.0795,4.07593 v 134.88479 c 0,2.71729 -1.3598,4.07593 -4.0795,4.07593 H 685.71463 c -2.71962,0 -4.07944,-1.35864 -4.07944,-4.07593 V 315.41475 m 5.43926,133.52615 H 1292.9256 V 316.77339 H 687.07445 V 448.9409"
       fill="#b47b41"
       stroke="none" />
    <path
       sodipodi:nodetypes="cccccccccc"
       style="stroke-width:1.35923"
       id="path556"
       d="M 687.07445,448.9409 V 316.77339 H 1292.9256 V 448.9409 H 687.07445 m 2.71964,-129.45021 V 446.2236 H 1290.2059 V 319.49069 H 689.79409"
       fill="#a3703a"
       stroke="none" />
    <path
       sodipodi:nodetypes="ccccc"
       style="stroke-width:1.35923"
       id="path558"
       d="M 689.79409,319.49069 H 1290.2059 V 446.2236 H 689.79409 V 319.49069"
       fill="#fff1d2"
       stroke="none" />
  </g>
  <g
     transform="translate(-681.63519,-311.33882)"
     sodipodi:insensitive="true"
     style="display:inline"
     inkscape:label="Layer 2"
     id="layer2"
     inkscape:groupmode="layer">
    <path
       style="stroke-width:1.86235"
       id="path1012"
       d="m 1212.9997,450.13952 0.093,0.93079 q 0.3728,3.44385 1.9564,6.32925 l -1.4905,0.0931 -41.6415,2.69925 -22.3579,1.21002 -59.621,2.51309 -59.621,1.30307 -37.2632,0.18616 h -3.7263 -7.4526 l -29.8105,-0.27923 -18.7247,-0.27924 -7.35946,-0.0931 -48.44205,-1.48923 -26.08419,-1.11694 -37.63575,-1.95462 -41.17575,-2.69925 -1.58369,-0.0931 q 1.86316,-3.35078 2.14262,-7.35312 l 40.98944,4.00234 37.26313,2.88539 26.08419,1.6754 48.44205,2.14078 7.45266,0.18616 18.6315,0.46539 29.8105,0.37231 h 7.4527 3.7263 l 37.2631,-0.27923 59.621,-1.95462 59.621,-3.63003 22.3579,-1.86155 41.0825,-3.90926 m 11.0858,15.63701 q 3.4469,1.48924 7.4527,1.48924 v 42.81564 q -4.0058,0 -7.4527,1.48925 v -45.79413 m -3.7262,-2.14077 v 50.07568 l -2.0495,1.76846 q -1.4906,1.48925 -2.5152,3.16464 l -3.5401,0.18616 -40.3373,2.69925 -22.3579,1.20999 -59.621,2.51309 -59.621,1.3031 -37.2631,0.27923 h -3.7263 -7.4527 l -22.1715,-0.18615 -7.639,-0.0931 -26.08416,-0.46539 -48.44205,-1.48923 -10.71315,-0.46539 -15.37104,-0.65155 -77.41415,-4.65387 -3.7263,-0.18615 -2.60843,-3.16464 -1.95631,-1.67539 v -50.26184 l 1.95631,-1.76846 0.83842,-0.8377 3.81947,0.27923 41.17575,2.69925 37.91524,1.95462 26.08419,1.11694 48.44205,1.48923 7.26636,0.0931 18.8178,0.27923 29.8105,0.27924 h 7.4527 3.7263 l 37.2631,-0.18616 59.621,-1.30309 59.621,-2.51309 22.3579,-1.21 41.9211,-2.69925 3.7261,-0.27923 0.7454,0.8377 2.0495,1.86155 m -465.78912,3.63001 q 4.09893,0 7.45262,-1.48924 v 45.79413 q -3.35369,-1.48925 -7.45262,-1.48925 v -42.81559 m 458.42952,62.73423 -41.0825,2.69925 -22.3579,1.21 -59.621,2.51309 -59.621,1.39617 -37.2631,0.18616 h -3.7263 -7.4527 l -22.358,-0.18616 -7.4526,-0.0931 -26.08424,-0.46539 -48.44205,-1.48925 -11.17894,-0.46539 -14.90525,-0.65153 L 773.20145,530 v -1.30307 q 0,-3.3508 -1.02473,-6.2362 l 1.58369,0.0931 77.69361,4.65389 15.27787,0.65153 10.80632,0.46539 48.44205,1.48925 26.08424,0.46537 7.5457,0.0931 22.2647,0.18616 h 7.4527 3.7263 l 37.2631,-0.27924 59.621,-1.30307 59.621,-2.51309 22.3579,-1.21002 40.6167,-2.69925 1.3975,-0.0931 q -1.0248,2.88541 -1.0248,6.2362 l 0.093,1.30308"
       fill="#e2665b"
       stroke="none" />
    <path
       style="stroke-width:1.86235"
       id="path1014"
       d="m 1212.9997,530 -0.093,-1.30309 q 0,-3.35079 1.0248,-6.2362 l 9.5953,-0.65153 -0.2796,0.0931 0.8386,-0.0931 v -10.23852 q 3.4468,-1.48925 7.4525,-1.48925 v 18.52242 l -7.5456,0.65155 L 1213,530 m 2.0495,-72.60044 q -1.5838,-2.8854 -1.9563,-6.32925 l -0.093,-0.93079 v -0.0931 l 11.0857,-0.8377 7.4525,-0.55845 v 18.61548 q -4.0057,0 -7.4525,-1.48924 v -9.12158 l -9.0363,0.74461 M 773.202,450.04642 q -0.27947,4.00234 -2.14263,7.35312 l -9.03631,-0.65155 v 9.02852 q -3.35369,1.48924 -7.45262,1.48924 v -18.61548 l 7.45262,0.55845 0.37263,0.0931 10.80631,0.74463 m 444.3627,10.89006 2.7949,-0.18615 v 2.8854 l -2.0495,-1.86154 -0.7454,-0.83771 m 2.7949,52.77493 v 4.56079 l -4.5648,0.37232 q 1.0247,-1.67539 2.5153,-3.16464 l 2.0495,-1.76847 m -450.04548,4.93311 -4.56474,-0.37232 v -4.46771 l 1.95631,1.67539 2.60843,3.16464 m -4.56474,-55.10187 v -2.79232 l 2.79473,0.18615 -0.83842,0.83771 -1.95631,1.76846 M 773.202,530 762.39569,529.25538 h -0.18631 l -7.63894,-0.65155 v -18.52242 q 4.09893,0 7.45262,1.48925 v 10.23852 h 0.37263 0.55896 l 9.22261,0.65153 q 1.02474,2.88541 1.02474,6.2362 V 530"
       fill="#c6594f"
       stroke="none" />
    <path
       style="stroke-width:1.86235"
       id="path1016"
       d="m 1212.9997,450.13952 -41.0825,3.90927 -22.3579,1.86154 -59.621,3.63003 -59.621,1.95462 -37.2631,0.27924 h -3.7263 -7.4527 l -29.8104,-0.37232 -18.6316,-0.46539 -7.45264,-0.18615 -48.44205,-2.14078 -26.08419,-1.67541 -37.26313,-2.88538 -40.98944,-4.00234 40.98944,2.69924 37.26313,1.95463 26.08419,1.11693 48.44205,1.48923 7.45264,0.0931 18.6316,0.27923 29.8104,0.27924 h 7.4527 3.7263 l 37.2631,-0.18616 59.621,-1.30308 59.621,-2.51309 22.3579,-1.21001 41.0825,-2.69925 v 0.0931"
       fill="#ff7366"
       stroke="none" />
    <path
       style="stroke-width:1.86235"
       id="path1018"
       d="m 771.05913,457.39956 1.58369,0.0931 41.17575,2.69925 37.63575,1.95462 26.08419,1.11694 48.44205,1.48923 7.35944,0.0931 18.7248,0.27923 29.8104,0.27923 h 7.4527 3.7263 l 37.2631,-0.18615 59.621,-1.30308 59.621,-2.51309 22.3579,-1.21001 41.6415,-2.69925 1.4905,-0.0931 9.0363,-0.74461 v 9.12158 45.79413 10.23852 l -0.8384,0.0931 0.2796,-0.0931 -9.5953,0.65153 -1.3973,0.0931 -40.6169,2.69925 -22.3579,1.21001 -59.621,2.51309 -59.621,1.3031 -37.2631,0.27921 h -3.7263 -7.4527 l -22.2647,-0.18614 -7.5457,-0.0931 -26.08424,-0.46539 -48.44205,-1.48925 -10.80632,-0.46539 -15.27787,-0.65153 -77.69361,-4.65389 -1.58369,-0.0931 -9.22261,-0.65153 h -0.55896 -0.37263 v -10.23852 -45.79412 -9.02852 l 9.03631,0.65154 m 449.30017,6.2362 v -2.8854 l -2.7948,0.18615 -3.7262,0.27924 -41.9211,2.69924 -22.3579,1.21 -59.621,2.51309 -59.621,1.3031 -37.2631,0.18615 h -3.7263 -7.4527 l -29.8104,-0.27923 -18.8179,-0.27924 -7.26634,-0.0931 -48.44205,-1.48923 -26.08419,-1.11694 -37.91524,-1.95462 -41.17575,-2.69925 -3.81947,-0.27923 -2.79472,-0.18616 v 2.79233 50.26184 4.46771 l 4.56473,0.37231 3.7263,0.18616 77.41415,4.65387 15.37104,0.65154 10.71315,0.4654 48.44205,1.48923 26.08424,0.46539 7.6389,0.0931 22.1715,0.18616 h 7.4527 3.7263 l 37.2631,-0.27924 59.621,-1.30309 59.621,-2.51309 22.3579,-1.21 40.3373,-2.69925 3.5401,-0.18615 4.5647,-0.37232 v -4.56079 -50.07568"
       fill="#fff1d2"
       stroke="none" />
    <path
       style="stroke-width:1.86235"
       id="path1020"
       d="m 1231.5382,467.26577 v -18.61548 l -7.4527,0.55845 -11.0858,0.83771 -41.0825,2.69924 -22.3579,1.21002 -59.621,2.51309 -59.621,1.30308 -37.2631,0.18615 h -3.7263 -7.4527 l -29.8104,-0.27923 -18.6316,-0.27924 -7.45264,-0.0931 -48.44205,-1.48923 -26.08419,-1.11694 -37.26313,-1.95462 -40.98944,-2.69925 -10.8063,-0.74462 -0.37263,-0.0931 -7.45262,-0.55846 v 18.61548 42.81565 18.52241 l 7.63893,0.65155 h 0.18632 l 10.8063,0.74463 78.25257,4.65387 14.90525,0.65154 11.17894,0.46537 48.44205,1.48925 26.08424,0.4654 7.4526,0.0931 22.3578,0.18615 h 7.4527 3.7263 l 37.2631,-0.18615 59.621,-1.39617 59.621,-2.5131 22.3579,-1.20999 41.0825,-2.69925 10.9927,-0.74463 7.5458,-0.65154 V 510.08144 467.2658 m -464.39169,66.08501 -4.75106,-0.37231 -7.82525,-0.65153 h -0.27947 q -1.49052,-0.0931 -2.42211,-1.21002 -1.02474,-1.02384 -1.02474,-2.51309 v -79.95354 q 0,-1.02386 0.55895,-1.95464 l 1.49053,-1.30307 q 0.93157,-0.55847 1.95631,-0.46539 l 7.17315,0.55846 0.37263,0.0931 10.71315,0.74462 78.34572,4.65387 26.08419,1.11692 48.44205,1.48925 7.45264,0.0931 18.6316,0.27924 29.8104,0.27923 h 7.4527 3.7263 l 37.2631,-0.18616 59.621,-1.30309 59.621,-2.51309 22.3579,-1.21 41.1757,-2.69924 10.9926,-0.83771 7.1733,-0.55847 q 1.0246,-0.0931 1.9563,0.46539 l 1.4905,1.30308 0.5589,1.95464 v 79.95354 q 0,1.48925 -0.9316,2.51309 -1.0247,1.11694 -2.5153,1.21002 h -0.2794 l -12.5762,1.02384 -5.4033,0.37231 -41.6415,2.69925 -22.3579,1.30309 -59.621,2.42001 -59.621,1.39616 -37.2631,0.18615 h -3.7263 -7.4527 l -22.3578,-0.18615 -7.4526,-0.0931 -26.08424,-0.4654 -48.44205,-1.48923 -26.08419,-1.11693 -78.90467,-4.65387 -5.40314,-0.37232"
       fill="#8e3f38"
       stroke="none" />
    <path
       style="stroke-width:1.86235"
       id="path1022"
       d="m 767.14651,533.35078 5.40314,0.37231 78.90467,4.65387 26.08419,1.11694 48.44205,1.48923 26.08424,0.46539 7.4526,0.0931 22.3578,0.18616 h 7.4527 3.7263 l 37.2631,-0.18616 59.621,-1.39615 59.621,-2.42001 22.3579,-1.3031 41.6415,-2.69924 5.4033,-0.37232 -5.3102,0.65155 -41.7346,4.56079 -22.3579,2.04772 -59.621,4.0954 -59.621,2.23386 -37.2631,0.37231 h -3.7263 -7.4527 l -22.3578,-0.27923 -7.4526,-0.18616 -26.08424,-0.74463 -48.44205,-2.42001 -26.08419,-1.86154 -78.99782,-7.81851 -5.30999,-0.65155"
       fill-opacity="0.2"
       fill="#000000"
       stroke="none" />
    <path
       style="stroke-width:1.86235"
       id="path1024"
       d="m 752.70704,441.29716 -5.49631,5.49157 10.99262,10.89007 5.49631,-5.49158 -10.99262,-10.89006 m 2.70158,-2.69925 10.99262,10.89007 q 1.11789,1.21001 1.21105,2.79232 0,1.58233 -1.21105,2.69925 l -5.49631,5.49157 q -1.11789,1.11694 -2.70158,1.21002 -1.58368,-0.0931 -2.70158,-1.3031 l -10.99262,-10.89006 q -1.11789,-1.11692 -1.11789,-2.60617 0,-1.67539 1.11789,-2.79233 l 5.49631,-5.49157 q 1.21105,-1.11692 2.79475,-1.11692 1.49052,0 2.60841,1.11692"
       fill="#515f6b"
       stroke="none" />
    <path
       style="stroke-width:1.86235"
       id="path1026"
       d="m 752.70704,441.29716 10.99262,10.89006 -5.49631,5.49158 -10.99262,-10.89007 5.49631,-5.49157"
       fill="#778d9f"
       stroke="none" />
    <path
       style="stroke-width:1.86235"
       id="path1028"
       d="m 1230.6067,438.59791 q 1.1178,-1.21 2.7947,-1.11692 1.5836,0 2.7015,1.21 l 5.4031,5.39849 q 1.1179,1.11694 1.2111,2.79233 0,1.48925 -1.1178,2.69925 l -10.8995,10.89006 q -1.1179,1.11694 -2.7948,1.21002 -1.6768,-0.18616 -2.7947,-1.3031 l -5.4031,-5.39849 q -1.2111,-1.21 -1.2111,-2.60617 0,-1.76847 1.2111,-2.8854 l 10.8995,-10.89007 m 2.7947,2.79233 -10.8995,10.89006 5.4031,5.3985 10.8995,-10.89007 -5.4031,-5.39849"
       fill="#515f6b"
       stroke="none" />
    <path
       style="stroke-width:1.86235"
       id="path1030"
       d="m 1233.4014,441.39024 5.4031,5.39849 -10.8995,10.89007 -5.4031,-5.3985 10.8995,-10.89006"
       fill="#778d9f"
       stroke="none" />
  </g>
  <g
     transform="translate(-681.63519,-311.33882)"
     style="display:inline;opacity:0"
     inkscape:label="Name"
     id="layer3"
     inkscape:groupmode="layer">
    <text
       transform="translate(33.84011,17.192898)"
       style="font-style:normal;font-variant:normal;font-weight:normal;font-stretch:normal;font-size:40px;line-height:1.25;font-family:'Kenney Bold';-inkscape-font-specification:'Kenney Bold, ';white-space:pre;shape-inside:url(#rect751);fill:#000000;fill-opacity:1;stroke:none;"
       id="text749"
       xml:space="preserve"><tspan
         x="715"
         y="390"><tspan
           style="font-style:normal;font-variant:normal;font-weight:normal;font-stretch:normal;font-family:'Kenney Bold';-inkscape-font-specification:'Kenney Bold, '">Brett Kolodny</tspan></tspan></text>
  </g>
  <text
     id="text758"
     y="193.66118"
     x="108.36481"
     style="font-style:normal;font-variant:normal;font-weight:normal;font-stretch:normal;font-size:40px;line-height:1.25;font-family:'Kenney Mini Square';-inkscape-font-specification:'Kenney Mini Square';fill:#ffffff;fill-opacity:1;stroke:none"
     xml:space="preserve"><tspan
       y="193.66118"
       x="108.36481"
       id="tspan756"
       sodipodi:role="line" /></text>
  <text
     id="text762"
     y="188.66118"
     x="103.36481"
     style="font-style:normal;font-weight:normal;font-size:40px;line-height:1.25;font-family:sans-serif;fill:#f2f2f2;fill-opacity:1;stroke:none"
     xml:space="preserve"><tspan
       y="188.66118"
       x="103.36481"
       id="tspan760"
       sodipodi:role="line" /></text>
  <g
     transform="translate(-681.63519,-311.33882)"
     style="display:inline;opacity:1"
     inkscape:label="Description"
     id="layer5"
     inkscape:groupmode="layer">
    <text
       style="font-size:40px;line-height:1.25;font-family:'Kenney Mini Square';-inkscape-font-specification:'Kenney Mini Square';white-space:pre;shape-inside:url(#rect1602);"
       id="text1600"
       xml:space="preserve" />
    <text
       style="font-size:24px;line-height:1.25;font-family:'Kenney Mini Square';-inkscape-font-specification:'Kenney Mini Square';white-space:pre;shape-inside:url(#rect1612);fill:#ffffff;"
       id="text1610"
       xml:space="preserve" />
    <text
       style="font-size:40px;line-height:1.25;font-family:'Kenney Mini Square';-inkscape-font-specification:'Kenney Mini Square';white-space:pre;shape-inside:url(#rect1618);"
       id="text1616"
       xml:space="preserve" />
    <text
       id="text1624"
       y="490"
       x="775"
       style="font-size:24px;line-height:1.25;font-family:'Kenney Mini Square';-inkscape-font-specification:'Kenney Mini Square';fill:#ffffff;fill-opacity:1"
       xml:space="preserve"><tspan
         y="490"
         x="775"
         id="tspan1622"
         sodipodi:role="line" /></text>
    <text
       style="font-size:22.8607px;line-height:1.25;font-family:'Kenney Mini Square';-inkscape-font-specification:'Kenney Mini Square';word-spacing:0px;white-space:pre"
       id="text1626"
       xml:space="preserve"><textPath
         id="textPath1709"
         xlink:href="#path1642"><tspan
           id="tspan1630"
           style="font-size:22.8607px;fill:#ffffff;fill-opacity:1">Software Engineer, Amateur Knitter</tspan></textPath></text>
    <path
       inkscape:path-effect="#path-effect1644"
       inkscape:original-d="m 779.93245,498.49154 c 77.21454,4.03746 154.42651,8.07383 231.64065,12.10937 74.3515,-4.29596 148.6989,-8.59274 223.0469,-12.89062"
       sodipodi:nodetypes="ccc"
       id="path1642"
       d="m 779.93245,498.49154 c 77.21459,4.03651 154.42656,8.07289 230.20935,7.94262 75.7827,-0.13027 150.1301,-4.42705 224.4782,-8.72387"
       style="fill:none;stroke:#000000;stroke-width:1px;stroke-linecap:butt;stroke-linejoin:miter;stroke-opacity:0" />
  </g>
  <text
     transform="translate(-681.63519,-311.33882)"
     style="font-style:normal;font-weight:normal;font-size:40px;line-height:1.25;font-family:sans-serif;white-space:pre;shape-inside:url(#rect1596);fill:#000000;fill-opacity:1;stroke:none;"
     id="text1594"
     xml:space="preserve" />
</svg>
