<?xml version="1.0" encoding="UTF-8" standalone="no"?>
<svg
   xmlns:dc="http://purl.org/dc/elements/1.1/"
   xmlns:cc="http://creativecommons.org/ns#"
   xmlns:rdf="http://www.w3.org/1999/02/22-rdf-syntax-ns#"
   xmlns:svg="http://www.w3.org/2000/svg"
   xmlns="http://www.w3.org/2000/svg"
   xmlns:sodipodi="http://sodipodi.sourceforge.net/DTD/sodipodi-0.dtd"
   xmlns:inkscape="http://www.inkscape.org/namespaces/inkscape"
   sodipodi:docname="link.svg"
   inkscape:version="1.0 (4035a4fb49, 2020-05-01)"
   id="svg537"
   version="1.1"
   viewBox="0 0 37.360981 37.328869"
   height="37.328869mm"
   width="37.360981mm">
  <defs
     id="defs531" />
  <sodipodi:namedview
     inkscape:window-maximized="0"
     inkscape:window-y="76"
     inkscape:window-x="76"
     inkscape:window-height="997"
     inkscape:window-width="1624"
     showgrid="false"
     inkscape:document-rotation="0"
     inkscape:current-layer="layer2"
     inkscape:document-units="mm"
     inkscape:cy="86.266284"
     inkscape:cx="84.914326"
     inkscape:zoom="2.8"
     inkscape:pageshadow="2"
     inkscape:pageopacity="0.0"
     borderopacity="1.0"
     bordercolor="#666666"
     pagecolor="#ffffff"
     id="base" />
  <metadata
     id="metadata534">
    <rdf:RDF>
      <cc:Work
         rdf:about="">
        <dc:format>image/svg+xml</dc:format>
        <dc:type
           rdf:resource="http://purl.org/dc/dcmitype/StillImage" />
        <dc:title></dc:title>
      </cc:Work>
    </rdf:RDF>
  </metadata>
  <g
     transform="translate(-100.00399,-113.62719)"
     inkscape:label="Layer 2"
     id="layer2"
     inkscape:groupmode="layer">
    <path
       style="stroke-width:0.65553"
       id="path1284"
       d="m 107.40885,120.63185 0.0325,-0.0329 q 4.56332,-4.6472 11.01715,-4.6472 6.45385,0 11.04975,4.6472 v 0.0329 h 0.0325 q 4.56333,4.61424 4.56333,11.14011 0,6.55884 -4.59593,11.20604 -4.59591,4.61427 -11.04973,4.61427 -6.45385,0 -11.01718,-4.61427 -4.62849,-4.6472 -4.62849,-11.20604 0,-6.52587 4.59591,-11.14011"
       fill="#fff1d2"
       stroke="none" />
  </g>
  <g
     transform="translate(-100.00399,-113.62719)"
     id="layer1"
     inkscape:groupmode="layer"
     inkscape:label="Layer 1">
    <path
       style="stroke-width:0.274595"
       id="path1370"
       d="m 106.65207,120.26958 0.0687,-0.0686 q 0.90656,-0.90577 1.89552,-1.64686 4.35422,-3.28 10.06826,-3.28 5.74152,0 10.10947,3.29372 0.98897,0.74109 1.89553,1.64686 l 0.0412,0.0412 v 0.0137 l 0.0412,0.0412 q 0.90655,0.90578 1.64828,1.89389 3.29656,4.36419 3.29656,10.08703 0,5.73656 -3.29656,10.10075 -0.74173,0.98811 -1.64828,1.89389 l -0.0412,0.0412 -0.0275,0.0274 -1.90927,1.66058 q -4.36794,3.29372 -10.10946,3.29372 -5.72778,0 -10.09573,-3.29372 -0.98897,-0.74109 -1.89553,-1.64686 l -0.0412,-0.0412 h -0.0137 l -0.0412,-0.0412 q -0.90656,-0.90578 -1.64829,-1.89389 -3.29656,-4.36419 -3.29656,-10.10075 0,-5.70912 3.28283,-10.05958 0.74173,-0.98812 1.66202,-1.90761 l 0.0549,-0.0549 m 0.7692,0.76853 -0.42581,0.45289 q -0.68678,0.71364 -1.24994,1.48217 -2.99438,4.04854 -2.99438,9.31849 0,5.28368 2.99438,9.31849 0.56316,0.76854 1.23621,1.4959 l 0.35713,0.37055 0.0824,0.0686 0.43954,0.42543 1.46972,1.23515 q 4.05203,3.00552 9.354,3.00552 5.28824,0 9.32654,-2.97807 l 1.49719,-1.24887 0.43954,-0.42544 0.0137,-0.0137 0.41207,-0.42544 1.24995,-1.4959 q 2.99438,-4.03481 2.99438,-9.33221 0,-5.28368 -3.00812,-9.33222 -0.56316,-0.76853 -1.23621,-1.48217 l -0.42581,-0.43917 -0.0687,-0.0823 -0.37087,-0.35682 -1.49719,-1.24887 q -4.05202,-2.97806 -9.32653,-2.97806 -5.30197,0 -9.354,3.01924 -0.75546,0.56268 -1.46972,1.23515 l -0.43954,0.41171"
       fill="#b47b41"
       stroke="none" />
    <path
       style="stroke-width:0.274595"
       id="path1372"
       d="m 107.42127,121.03811 0.43954,-0.41171 q 0.71426,-0.67247 1.46972,-1.23515 4.05203,-3.01924 9.354,-3.01924 5.27451,0 9.32654,2.97807 l 1.49719,1.24887 0.37086,0.35682 0.0687,0.0823 0.42581,0.43916 q 0.67305,0.71364 1.23621,1.48218 3.00812,4.04853 3.00812,9.33221 0,5.29741 -2.99439,9.33222 l -1.24994,1.4959 -0.41207,0.42544 -0.0137,0.0137 -0.43954,0.42543 -1.49719,1.24887 q -4.0383,2.97808 -9.32654,2.97808 -5.30197,0 -9.354,-3.00553 l -1.46972,-1.23514 -0.43954,-0.42544 -0.0824,-0.0686 -0.35713,-0.37054 q -0.67305,-0.72736 -1.23621,-1.4959 -2.99438,-4.03481 -2.99438,-9.31849 0,-5.26996 2.99438,-9.31849 0.56316,-0.76853 1.24995,-1.48217 l 0.42581,-0.45289 m 0.39833,0.39799 q -4.51905,4.48769 -4.51905,10.85555 0,6.32669 4.43663,10.80067 l 0.0824,0.0686 q 4.49157,4.50142 10.86493,4.50142 6.37336,0 10.87867,-4.4877 v -0.0137 h 0.0137 q 4.49157,-4.50142 4.49157,-10.86928 0,-6.36787 -4.50531,-10.85556 l -0.0687,-0.0823 q -4.47783,-4.43281 -10.80999,-4.43281 -6.37336,0 -10.86493,4.51515"
       fill="#a3703a"
       stroke="none" />
    <path
       style="stroke-width:0.274595"
       id="path1374"
       d="m 106.65207,120.26958 -0.0549,0.0549 q -0.92029,0.9195 -1.66202,1.90761 -3.28283,4.35046 -3.28283,10.05958 0,5.73657 3.29657,10.10075 0.74172,0.98812 1.64828,1.89389 l 0.0412,0.0412 h 0.0137 l 0.0412,0.0412 q 0.90655,0.90577 1.89552,1.64686 4.36795,3.29373 10.09574,3.29373 5.74151,0 10.10946,-3.29373 l 1.90927,-1.66058 0.0275,-0.0274 0.0412,-0.0412 q 0.90655,-0.90578 1.64828,-1.89389 3.29656,-4.36418 3.29656,-10.10075 0,-5.72284 -3.29656,-10.08703 -0.74173,-0.98811 -1.64829,-1.89389 l -0.0412,-0.0412 v -0.0137 l -0.0412,-0.0412 q -0.90656,-0.90577 -1.89553,-1.64686 -4.36795,-3.29372 -10.10947,-3.29372 -5.71404,0 -10.06826,3.28 -0.98896,0.74109 -1.89552,1.64686 l -0.0687,0.0686 m -1.71696,-1.13908 q 0,-0.24703 0.15109,-0.42544 0.16483,-0.13724 0.39834,-0.15096 h 2.22518 q 4.6976,-3.82895 10.97481,-3.82895 6.30469,0 10.98856,3.84267 l 2.18397,-0.0137 q 0.23351,0.0137 0.42581,0.15097 0.13735,0.16468 0.15109,0.39799 v 2.20954 q 3.83226,4.69355 3.83226,10.97907 0,6.29924 -3.83226,10.97907 v 2.19582 q -0.0137,0.24703 -0.15109,0.41172 -0.17857,0.13723 -0.42581,0.15096 h -2.18397 q -4.68387,3.82895 -10.98856,3.82895 -6.29094,0 -10.98855,-3.82895 h -2.21144 q -0.23351,-0.0137 -0.39834,-0.15096 -0.15109,-0.17841 -0.15109,-0.42544 l 0.0137,-2.1821 q -3.846,-4.67983 -3.846,-10.97907 0,-6.2718 3.83226,-10.96535 v -2.19581"
       fill="#6d4b27"
       stroke="none" />
    <path
       style="stroke-width:0.274595"
       id="path1376"
       d="m 117.50327,116.1387 0.78293,-0.78226 0.78293,0.0137 0.7692,0.76854 v 0.78226 l 0.78294,0.0137 0.3846,-0.39799 -0.78294,-0.78226 -1.55213,-1.5508 -1.55213,1.5508 -0.7692,0.76853 0.3846,0.39799 0.78293,0.0137 -0.0137,-0.79598 m 1.93673,1.16653 q -0.15109,-0.15096 -0.15109,-0.38427 v -0.56268 l -0.60437,-0.60385 -0.61811,0.61758 v 0.54895 q 0,0.23331 -0.15109,0.38427 l -0.0275,0.0412 q -0.1511,0.13724 -0.3846,0.12351 h -0.7692 q -0.23351,0.0137 -0.39834,-0.15096 l -0.3846,-0.38427 q -0.16482,-0.17841 -0.15109,-0.42544 0,-0.20585 0.16483,-0.37054 l 2.32133,-2.31933 q 0.16483,-0.16469 0.39833,-0.19214 0.21978,0.0137 0.3846,0.17841 l 2.33507,2.33306 q 0.16483,0.16468 0.16483,0.37054 -0.0137,0.24703 -0.17856,0.42544 l -0.3846,0.38427 q -0.16483,0.16468 -0.3846,0.15096 h -0.78294 q -0.20603,0.0137 -0.35713,-0.12351 l -0.0412,-0.0412"
       fill="#515f6b"
       stroke="none" />
    <path
       style="stroke-width:0.274595"
       id="path1378"
       d="m 117.11867,115.75443 0.3846,0.38427 0.0137,0.79599 -0.78294,-0.0137 -0.3846,-0.398 0.7692,-0.76853 m 2.71967,0.38427 0.3846,-0.38427 0.78293,0.78226 -0.3846,0.39799 -0.78293,-0.0137 v -0.78226"
       fill="#778d9f"
       stroke="none" />
    <path
       style="stroke-width:0.274595"
       id="path1380"
       d="m 117.50327,116.1387 -0.3846,-0.38427 1.55213,-1.55079 1.55213,1.55079 -0.3846,0.38427 -0.7692,-0.76853 -0.78293,-0.0137 -0.78293,0.78226"
       fill="#94afc6"
       stroke="none" />
    <path
       style="stroke-width:0.274595"
       id="path1382"
       d="m 119.44,147.2781 0.0412,-0.0412 q 0.15109,-0.13724 0.35713,-0.12351 h 0.78293 q 0.21977,-0.0137 0.3846,0.15096 l 0.3846,0.38427 q 0.16483,0.16469 0.17856,0.41171 0,0.20586 -0.16483,0.37055 l -2.33506,2.34678 q -0.16483,0.16468 -0.3846,0.1784 -0.23351,-0.0274 -0.39834,-0.19213 l -2.32133,-2.33305 q -0.16483,-0.16469 -0.16483,-0.37055 -0.0137,-0.24702 0.1511,-0.41171 l 0.38459,-0.38427 q 0.16483,-0.16469 0.39834,-0.15096 h 0.7692 q 0.23351,-0.0137 0.3846,0.12351 l 0.0275,0.0412 q 0.15109,0.15097 0.15109,0.38427 v 0.53523 l 0.61811,0.61757 0.60437,-0.60384 v -0.54896 q 0,-0.2333 0.15109,-0.38427 m 0.78293,1.53707 0.78294,-0.78226 -0.3846,-0.38426 -0.78294,0.0137 v 0.76853 l -0.76919,0.78226 -0.78294,0.0137 -0.78293,-0.79598 0.0137,-0.78226 -0.78294,0.0137 -0.3846,0.38427 0.7692,0.76853 1.55214,1.56452 1.55213,-1.56452"
       fill="#515f6b"
       stroke="none" />
    <path
       style="stroke-width:0.274595"
       id="path1384"
       d="m 120.22293,148.81517 -0.3846,-0.38426 v -0.76854 l 0.78294,-0.0137 0.3846,0.38427 -0.78294,0.78226 m -3.10426,0 -0.7692,-0.76854 0.3846,-0.38427 0.78293,-0.0137 -0.0137,0.78226 -0.3846,0.38427"
       fill="#778d9f"
       stroke="none" />
    <path
       style="stroke-width:0.274595"
       id="path1386"
       d="m 117.11867,148.81517 0.3846,-0.38426 0.78293,0.79598 0.78293,-0.0137 0.7692,-0.78226 0.3846,0.38427 -1.55213,1.56451 -1.55213,-1.56451"
       fill="#94afc6"
       stroke="none" />
    <path
       style="stroke-width:0.274595"
       id="path1388"
       d="m 103.68516,131.53685 q -0.15109,0.15097 -0.3846,0.15097 h -0.56316 l -0.60437,0.60385 0.61811,0.61757 h 0.54942 q 0.23351,0 0.3846,0.15096 l 0.0412,0.0274 q 0.13736,0.15096 0.12362,0.38427 v 0.76853 q 0.0137,0.23331 -0.15109,0.39799 l -0.3846,0.38427 q -0.17857,0.16469 -0.42581,0.15096 -0.20603,0 -0.37086,-0.16468 l -2.32133,-2.31933 q -0.16483,-0.16469 -0.1923,-0.39799 0.0137,-0.21959 0.17856,-0.38427 l 2.33507,-2.33306 q 0.16483,-0.16468 0.37086,-0.16468 0.24724,0.0137 0.42581,0.17841 l 0.3846,0.38427 q 0.16483,0.16468 0.15109,0.38426 v 0.78226 q 0.0137,0.20586 -0.12362,0.35682 l -0.0412,0.0412 m -1.16753,1.93507 -0.78294,-0.78226 0.0137,-0.78226 0.7692,-0.76854 h 0.78293 l 0.0137,-0.78226 -0.39834,-0.38426 -0.78293,0.78226 -1.55213,1.55079 1.55213,1.55079 0.7692,0.76854 0.39833,-0.38427 0.0137,-0.78226 -0.79667,0.0137"
       fill="#515f6b"
       stroke="none" />
    <path
       style="stroke-width:0.274595"
       id="path1390"
       d="m 102.51763,133.47192 -0.3846,0.38426 -1.55213,-1.55079 1.55213,-1.55079 0.3846,0.38426 -0.7692,0.76854 -0.0137,0.78226 0.78294,0.78226"
       fill="#94afc6"
       stroke="none" />
    <path
       style="stroke-width:0.274595"
       id="path1392"
       d="m 102.51763,133.47192 0.79667,-0.0137 -0.0137,0.78226 -0.39833,0.38426 -0.7692,-0.76853 0.3846,-0.38427 m -0.3846,-2.71732 0.78294,-0.78226 0.39833,0.38427 -0.0137,0.78226 h -0.78294 l -0.3846,-0.38427"
       fill="#778d9f"
       stroke="none" />
    <path
       style="stroke-width:0.274595"
       id="path1394"
       d="m 134.83771,133.47192 -0.78294,-0.0137 0.0137,0.78226 0.3846,0.38426 0.7692,-0.76853 1.56586,-1.5508 -1.56586,-1.55079 -0.78294,-0.78226 -0.3846,0.38427 0.0137,0.78226 h 0.7692 l 0.78293,0.76853 0.0137,0.78226 -0.79666,0.78226 m -1.1538,-1.93506 -0.0412,-0.0412 q -0.13736,-0.15096 -0.12362,-0.35682 v -0.78226 q -0.0137,-0.21958 0.15109,-0.38427 l 0.3846,-0.38427 q 0.16483,-0.16468 0.41207,-0.17841 0.20604,0 0.37087,0.16469 l 2.3488,2.33305 q 0.16482,0.16469 0.17856,0.38427 -0.0275,0.23331 -0.1923,0.39799 l -2.33506,2.31933 q -0.16483,0.16469 -0.37087,0.16469 -0.24724,0.0137 -0.41207,-0.15096 l -0.38459,-0.38428 q -0.16483,-0.16468 -0.1511,-0.39799 v -0.76853 q -0.0137,-0.23331 0.12363,-0.38427 l 0.0412,-0.0274 q 0.15109,-0.15096 0.38459,-0.15096 h 0.53569 l 0.61811,-0.61757 -0.60437,-0.60385 h -0.54943 q -0.2335,0 -0.3846,-0.15097"
       fill="#515f6b"
       stroke="none" />
    <path
       style="stroke-width:0.274595"
       id="path1396"
       d="m 135.2223,130.7546 -0.38459,0.38426 h -0.7692 l -0.0137,-0.78226 0.3846,-0.38426 0.78293,0.78226 m -0.3846,2.71732 0.3846,0.38426 -0.7692,0.76854 -0.3846,-0.38427 -0.0137,-0.78226 0.78294,0.0137"
       fill="#778d9f"
       stroke="none" />
    <path
       style="stroke-width:0.274595"
       id="path1398"
       d="m 134.83771,133.47192 0.79666,-0.78226 -0.0137,-0.78226 -0.78293,-0.76854 0.3846,-0.38426 1.56587,1.55079 -1.56587,1.55079 -0.3846,-0.38426"
       fill="#94afc6"
       stroke="none" />
  </g>
</svg>
